<svg xmlns="http://www.w3.org/2000/svg" xmlns:xlink="http://www.w3.org/1999/xlink" width="70" height="70" viewBox="0 0 70 70">
  <defs>
    <filter id="Path_3116" x="0" y="0" width="70" height="70" filterUnits="userSpaceOnUse">
      <feOffset dy="3" input="SourceAlpha"/>
      <feGaussianBlur stdDeviation="3" result="blur"/>
      <feFlood flood-opacity="0.161"/>
      <feComposite operator="in" in2="blur"/>
      <feComposite in="SourceGraphic"/>
    </filter>
  </defs>
  <g id="burger_button002" transform="translate(-1189 -16)">
    <g transform="matrix(1, 0, 0, 1, 1189, 16)" filter="url(#Path_3116)">
      <g id="Path_3116-2" data-name="Path 3116" transform="translate(11 8)" fill="#0080cb">
        <path d="M 24 49 C 20.62545967102051 49 17.35133934020996 48.33887100219727 14.26856994628906 47.03496170043945 C 11.29146957397461 45.77576065063477 8.61797046661377 43.97330093383789 6.322329998016357 41.67766952514648 C 4.026700019836426 39.38203048706055 2.224240064620972 36.70853042602539 0.9650400280952454 33.73143005371094 C -0.3388699889183044 30.64866065979004 -1 27.37454032897949 -1 24 C -1 20.62545967102051 -0.3388699889183044 17.35133934020996 0.9650400280952454 14.26856994628906 C 2.224240064620972 11.29146957397461 4.026700019836426 8.61797046661377 6.322329998016357 6.322329998016357 C 8.61797046661377 4.026700019836426 11.29146957397461 2.224240064620972 14.26856994628906 0.9650400280952454 C 17.35133934020996 -0.3388699889183044 20.62545967102051 -1 24 -1 C 27.37454032897949 -1 30.64866065979004 -0.3388699889183044 33.73143005371094 0.9650400280952454 C 36.70853042602539 2.224240064620972 39.38203048706055 4.026700019836426 41.67766952514648 6.322329998016357 C 43.97330093383789 8.61797046661377 45.77576065063477 11.29146957397461 47.03496170043945 14.26856994628906 C 48.33887100219727 17.35133934020996 49 20.62545967102051 49 24 C 49 27.37454032897949 48.33887100219727 30.64866065979004 47.03496170043945 33.73143005371094 C 45.77576065063477 36.70853042602539 43.97330093383789 39.38203048706055 41.67766952514648 41.67766952514648 C 39.38203048706055 43.97330093383789 36.70853042602539 45.77576065063477 33.73143005371094 47.03496170043945 C 30.64866065979004 48.33887100219727 27.37454032897949 49 24 49 Z" stroke="none"/>
        <path d="M 24 0 C 10.74517059326172 0 0 10.74517059326172 0 24 C 0 37.25482940673828 10.74517059326172 48 24 48 C 37.25482940673828 48 48 37.25482940673828 48 24 C 48 10.74517059326172 37.25482940673828 0 24 0 M 24 -2 C 27.50909996032715 -2 30.9142894744873 -1.312290191650391 34.12099075317383 0.04402923583984375 C 37.21728897094727 1.353660583496094 39.99763107299805 3.228080749511719 42.38476943969727 5.615230560302734 C 44.77191925048828 8.002368927001953 46.64633941650391 10.78271102905273 47.95597076416016 13.87900924682617 C 49.31229019165039 17.0857105255127 50 20.49090003967285 50 24 C 50 27.50909996032715 49.31229019165039 30.9142894744873 47.95597076416016 34.12099075317383 C 46.64633941650391 37.21728897094727 44.77191925048828 39.99763107299805 42.38476943969727 42.38476943969727 C 39.99763107299805 44.77191925048828 37.21728897094727 46.64633941650391 34.12099075317383 47.95597076416016 C 30.9142894744873 49.31229019165039 27.50909996032715 50 24 50 C 20.49090003967285 50 17.0857105255127 49.31229019165039 13.87900924682617 47.95597076416016 C 10.78271102905273 46.64633941650391 8.002368927001953 44.77191925048828 5.615230560302734 42.38476943969727 C 3.228080749511719 39.99763107299805 1.353660583496094 37.21728897094727 0.04402923583984375 34.12099075317383 C -1.312290191650391 30.9142894744873 -2 27.50909996032715 -2 24 C -2 20.49090003967285 -1.312290191650391 17.0857105255127 0.04402923583984375 13.87900924682617 C 1.353660583496094 10.78271102905273 3.228080749511719 8.002368927001953 5.615230560302734 5.615230560302734 C 8.002368927001953 3.228080749511719 10.78271102905273 1.353660583496094 13.87900924682617 0.04402923583984375 C 17.0857105255127 -1.312290191650391 20.49090003967285 -2 24 -2 Z" stroke="none" fill="#fff"/>
      </g>
    </g>
    <g id="Group_23" data-name="Group 23" transform="translate(4.737 4.737)">
      <rect id="Rectangle_3438" data-name="Rectangle 3438" width="6" height="6" rx="1" transform="translate(1214.263 32.263) rotate(90)" fill="#fff"/>
      <rect id="Rectangle_3448" data-name="Rectangle 3448" width="6" height="6" rx="1" transform="translate(1214.263 48.263) rotate(90)" fill="#fff"/>
      <rect id="Rectangle_3444" data-name="Rectangle 3444" width="6" height="6" rx="1" transform="translate(1222.263 40.263) rotate(90)" fill="#fff"/>
      <rect id="Rectangle_3442" data-name="Rectangle 3442" width="6" height="6" rx="1" transform="translate(1230.263 32.263) rotate(90)" fill="#fff"/>
      <rect id="Rectangle_3446" data-name="Rectangle 3446" width="6" height="6" rx="1" transform="translate(1230.263 48.263) rotate(90)" fill="#fff"/>
    </g>
  </g>
</svg>
