<svg xmlns="http://www.w3.org/2000/svg" width="37.284" height="8.808" viewBox="0 0 37.284 8.808">
  <path id="Path_6370" data-name="Path 6370" d="M-14.706.192a3.856,3.856,0,0,1-2.034-.54,3.7,3.7,0,0,1-1.4-1.53,5.055,5.055,0,0,1-.5-2.322,5.083,5.083,0,0,1,.5-2.334,3.745,3.745,0,0,1,1.4-1.536,3.824,3.824,0,0,1,2.034-.546A3.869,3.869,0,0,1-13.14-8.3a3.728,3.728,0,0,1,1.242.876.532.532,0,0,1,.156.534.714.714,0,0,1-.324.414l-.06.036a.732.732,0,0,1-.444.072.86.86,0,0,1-.528-.252,2.123,2.123,0,0,0-.714-.474,2.372,2.372,0,0,0-.894-.162,2.294,2.294,0,0,0-1.308.378,2.437,2.437,0,0,0-.87,1.068A3.952,3.952,0,0,0-17.19-4.2a3.92,3.92,0,0,0,.306,1.6,2.437,2.437,0,0,0,.87,1.068,2.294,2.294,0,0,0,1.308.378A2.231,2.231,0,0,0-13.1-1.788a.909.909,0,0,1,.492-.264.825.825,0,0,1,.48.072l.024.024a.68.68,0,0,1,.354.4.522.522,0,0,1-.126.546,3.634,3.634,0,0,1-1.248.888A3.942,3.942,0,0,1-14.706.192ZM-9.45,0a.626.626,0,0,1-.708-.708V-7.692A.615.615,0,0,1-9.474-8.4a.621.621,0,0,1,.7.708v6.408h3.672q.708,0,.708.636T-5.106,0ZM.2.192a3.856,3.856,0,0,1-2.034-.54,3.7,3.7,0,0,1-1.4-1.53,5.055,5.055,0,0,1-.5-2.322,5.083,5.083,0,0,1,.5-2.334,3.745,3.745,0,0,1,1.4-1.536A3.824,3.824,0,0,1,.2-8.616,3.762,3.762,0,0,1,2.22-8.07,3.815,3.815,0,0,1,3.612-6.534,5.033,5.033,0,0,1,4.122-4.2a5.005,5.005,0,0,1-.51,2.322A3.772,3.772,0,0,1,2.22-.348,3.794,3.794,0,0,1,.2.192Zm0-1.344A2.258,2.258,0,0,0,1.506-1.53,2.47,2.47,0,0,0,2.364-2.6,3.92,3.92,0,0,0,2.67-4.2a3.952,3.952,0,0,0-.306-1.614,2.47,2.47,0,0,0-.858-1.068A2.258,2.258,0,0,0,.2-7.26a2.294,2.294,0,0,0-1.308.378,2.437,2.437,0,0,0-.87,1.068A3.952,3.952,0,0,0-2.286-4.2,3.92,3.92,0,0,0-1.98-2.6,2.437,2.437,0,0,0-1.11-1.53,2.294,2.294,0,0,0,.2-1.152ZM8.442.168A4.433,4.433,0,0,1,6.786-.138a3.1,3.1,0,0,1-1.32-1.026A.632.632,0,0,1,5.328-1.7a.66.66,0,0,1,.354-.4.624.624,0,0,1,.5-.1,1.023,1.023,0,0,1,.456.318,2.251,2.251,0,0,0,.774.54,2.727,2.727,0,0,0,1.074.192,1.777,1.777,0,0,0,1.182-.306,1.062,1.062,0,0,0,.342-.834,1.065,1.065,0,0,0-.15-.576,1.377,1.377,0,0,0-.624-.45,8.2,8.2,0,0,0-1.458-.426A3.349,3.349,0,0,1,6.06-4.62,2.15,2.15,0,0,1,5.5-6.144a2.356,2.356,0,0,1,.354-1.29,2.379,2.379,0,0,1,1-.87,3.409,3.409,0,0,1,1.506-.312A3.7,3.7,0,0,1,9.93-8.3a3.56,3.56,0,0,1,1.128.8.58.58,0,0,1,.18.5.765.765,0,0,1-.312.456.606.606,0,0,1-.5.168,1,1,0,0,1-.48-.276A2.687,2.687,0,0,0,9.258-7.1a2.132,2.132,0,0,0-.912-.18,1.745,1.745,0,0,0-1.014.27.92.92,0,0,0-.39.81,1,1,0,0,0,.114.462,1.134,1.134,0,0,0,.5.426,5.463,5.463,0,0,0,1.206.4,4.155,4.155,0,0,1,2.076.972,2.235,2.235,0,0,1,.636,1.632,2.186,2.186,0,0,1-.834,1.842A3.514,3.514,0,0,1,8.442.168ZM13.6,0a.626.626,0,0,1-.708-.708V-7.692A.626.626,0,0,1,13.6-8.4h4.2q.708,0,.708.648t-.708.636H14.274v2.184H17.43q.708,0,.708.648t-.708.648H14.274v2.352h3.66q.708,0,.708.636T17.934,0Z" transform="translate(18.642 8.616)" fill="#fff"/>
</svg>
