<svg xmlns="http://www.w3.org/2000/svg" width="19.889" height="20.454" viewBox="0 0 19.889 20.454">
  <g id="contact_icon003" transform="translate(-7.073)">
    <path id="Path_2918" data-name="Path 2918" d="M121.377,4.136a1.157,1.157,0,0,0,1.157-1.157V1.157a1.157,1.157,0,0,0-2.315,0V2.978A1.157,1.157,0,0,0,121.377,4.136Z" transform="translate(-108.627)" fill="#36393c"/>
    <path id="Path_2919" data-name="Path 2919" d="M335,4.136a1.157,1.157,0,0,0,1.157-1.157V1.157a1.157,1.157,0,0,0-2.315,0V2.978A1.157,1.157,0,0,0,335,4.136Z" transform="translate(-313.715)" fill="#36393c"/>
    <path id="Path_2920" data-name="Path 2920" d="M24.175,41.287h-.716v1.329a2.174,2.174,0,1,1-4.349,0V41.287H14.925v1.329a2.174,2.174,0,1,1-4.349,0V41.287H9.86a2.787,2.787,0,0,0-2.787,2.787V57.3A2.787,2.787,0,0,0,9.86,60.092H24.175A2.787,2.787,0,0,0,26.962,57.3V44.074A2.787,2.787,0,0,0,24.175,41.287Zm.594,15.528a1.293,1.293,0,0,1-1.291,1.292H10.558a1.293,1.293,0,0,1-1.291-1.292V46.464h15.5V56.815Z" transform="translate(0 -39.638)" fill="#36393c"/>
  </g>
</svg>
