<svg xmlns="http://www.w3.org/2000/svg" width="31.044" height="8.556" viewBox="0 0 31.044 8.556">
  <path id="Path_6371" data-name="Path 6371" d="M-14.778,0a.621.621,0,0,1-.7-.708V-7.692a.643.643,0,0,1,.21-.558,1.059,1.059,0,0,1,.618-.15.923.923,0,0,1,.84.48l2.124,3.552,2.1-3.54a.866.866,0,0,1,.39-.4,1.484,1.484,0,0,1,.582-.1.626.626,0,0,1,.708.708V-.708A.626.626,0,0,1-8.61,0a.626.626,0,0,1-.708-.708v-5.28L-11.01-3.06a.763.763,0,0,1-.684.492.763.763,0,0,1-.684-.492l-1.7-2.928v5.28A.621.621,0,0,1-14.778,0ZM-5.5,0A.626.626,0,0,1-6.21-.708V-7.692A.626.626,0,0,1-5.5-8.4h4.2q.708,0,.708.648t-.708.636H-4.83v2.184h3.156q.708,0,.708.648t-.708.648H-4.83v2.352h3.66q.708,0,.708.636T-1.17,0ZM1.506,0A.615.615,0,0,1,.822-.708V-7.692A.615.615,0,0,1,1.506-8.4h.156a.974.974,0,0,1,.852.468l3.648,5.5V-7.692a.7.7,0,0,1,.186-.528A.72.72,0,0,1,6.87-8.4a.621.621,0,0,1,.7.708V-.708q0,.708-.66.708h-.12a.955.955,0,0,1-.852-.468L2.2-6.132V-.708A.621.621,0,0,1,1.506,0Zm10.86.156a3.236,3.236,0,0,1-2.4-.834,3.413,3.413,0,0,1-.828-2.5V-7.692a.7.7,0,0,1,.186-.528.72.72,0,0,1,.522-.18.621.621,0,0,1,.7.708v4.44a2.147,2.147,0,0,0,.486,1.566,1.808,1.808,0,0,0,1.338.486A1.787,1.787,0,0,0,13.7-1.686a2.165,2.165,0,0,0,.48-1.566v-4.44a.621.621,0,0,1,.7-.708.621.621,0,0,1,.7.708V-3.18a3.445,3.445,0,0,1-.816,2.5A3.194,3.194,0,0,1,12.366.156Z" transform="translate(15.474 8.4)" fill="#fff"/>
</svg>
